<?xml version="1.0" encoding="UTF-8"?>
<svg version="1.1" xmlns="http://www.w3.org/2000/svg" width="1536" height="1024">
<path d="M0 0 C506.88 0 1013.76 0 1536 0 C1536 337.92 1536 675.84 1536 1024 C1029.12 1024 522.24 1024 0 1024 C0 686.08 0 348.16 0 0 Z " fill="#FEFEFE" transform="translate(0,0)"/>
<path d="M0 0 C1.36135856 0.00056571 2.72271772 0.00024445 4.08407593 -0.00088501 C7.74032849 -0.00145331 11.39644689 0.01021523 15.05266857 0.02426291 C18.88831571 0.03685845 22.72396672 0.03794766 26.55963135 0.04031372 C33.80536793 0.04650278 41.05104337 0.06287833 48.29675317 0.0830127 C56.55321397 0.10545236 64.80967787 0.11638532 73.06616163 0.12640357 C90.03405793 0.14724717 107.00187012 0.18389078 123.96972656 0.22705078 C123.96972656 15.07705078 123.96972656 29.92705078 123.96972656 45.22705078 C119.88243164 45.2416333 115.79513672 45.25621582 111.58398438 45.27124023 C98.0571545 45.32164916 84.53044302 45.38810703 71.00372696 45.46276569 C62.80506938 45.50762738 54.6064543 45.54706393 46.40771484 45.57348633 C39.25716324 45.59654472 32.10674724 45.63002942 24.95630336 45.67575234 C21.17429172 45.69957947 17.39241351 45.71837675 13.61032867 45.72466469 C10.04140203 45.73076359 6.47281629 45.75093369 2.90401649 45.78132629 C0.9883739 45.79414141 -0.92734866 45.79254981 -2.84303284 45.79032898 C-17.6335188 45.94893292 -30.23904767 49.56979022 -41.28027344 59.72705078 C-51.63937051 70.64699069 -55.53592376 83.64990231 -55.27246094 98.41845703 C-54.39540058 112.21093843 -48.5639841 123.80729987 -38.47949219 133.25830078 C-27.43960134 142.13247142 -15.82097066 144.66951214 -1.92982483 144.63774109 C0.24372662 144.63318497 2.41649633 144.64748252 4.58996582 144.6661377 C9.21654054 144.70263012 13.84302937 144.71655311 18.46972656 144.72705078 C78.9471799 144.86519241 78.9471799 144.86519241 102.71972656 167.53955078 C119.1096228 184.48898829 125.61983341 205.91622655 125.37207031 229.00292969 C124.68485789 254.7226356 115.01024283 276.63722109 96.51123047 294.64697266 C75.86418909 313.6845257 50.71656352 322.42377302 23.03613281 322.34057617 C21.75724686 322.3407222 20.4783609 322.34086823 19.16072083 322.34101868 C15.67575424 322.34130407 12.19082249 322.33544922 8.70586395 322.32844472 C5.05570149 322.32216807 1.40553812 322.32160398 -2.24462891 322.32041931 C-9.14694216 322.31731867 -16.04923947 322.30912243 -22.95154572 322.29906982 C-30.81373179 322.28786925 -38.67591866 322.28238831 -46.53811073 322.27737439 C-62.70217576 322.26693869 -78.86621883 322.24860905 -95.03027344 322.22705078 C-95.03027344 307.70705078 -95.03027344 293.18705078 -95.03027344 278.22705078 C-91.2365625 278.21770508 -87.44285156 278.20835937 -83.53417969 278.19873047 C-70.95331396 278.16485549 -58.37261872 278.10944613 -45.79188538 278.04314804 C-38.16952201 278.00349869 -30.54725977 277.97103515 -22.92480469 277.95605469 C-16.27372233 277.94296441 -9.62286382 277.91581442 -2.97190762 277.87243772 C0.54311621 277.84998676 4.05786566 277.8341301 7.57296753 277.83516693 C29.87781102 277.83463979 50.69933796 277.1857643 67.96972656 261.22705078 C78.51017717 250.26111409 83.36528793 237.92212872 83.25488281 222.87548828 C82.53360336 213.64706349 78.56314678 205.39861956 71.78222656 199.10205078 C64.86105142 193.43115244 57.104533 191.13885096 48.25585938 191.0534668 C47.12988342 191.03997696 46.00390747 191.02648712 44.84381104 191.0125885 C43.63239441 191.00215012 42.42097778 190.99171173 41.17285156 190.98095703 C38.57779656 190.94798308 35.98274455 190.91477211 33.38769531 190.88134766 C29.32019049 190.83324777 25.25265799 190.78950883 21.18505859 190.75024414 C-15.28342252 190.37784373 -45.77519873 187.24985504 -73.28027344 161.47705078 C-78.88198314 155.68406319 -82.98475646 149.15188203 -87.03027344 142.22705078 C-87.77083984 140.97988281 -87.77083984 140.97988281 -88.52636719 139.70751953 C-100.33981516 118.10473461 -102.57521452 89.80376678 -95.71484375 66.37207031 C-88.19327647 42.80413519 -72.44896882 24.32200936 -51.03027344 12.22705078 C-50.18078125 11.73849609 -49.33128906 11.24994141 -48.45605469 10.74658203 C-33.21337689 2.55836668 -17.12392889 -0.0987209 0 0 Z " fill="#004354" transform="translate(407.0302734375,352.77294921875)"/>
<path d="M0 0 C65.0122449 0 65.0122449 0 77 11 C84.77234411 19.10308216 86.49846009 27.63008407 86.421875 38.61645508 C86.12788593 47.37713584 83.83424228 55.02246873 77.71484375 61.5 C73.90169204 64.835422 69.80465865 67.39844712 65 69 C66.62335616 73.73249593 69.19789062 77.60945941 71.9375 81.75 C72.41678955 82.48355713 72.8960791 83.21711426 73.38989258 83.97290039 C75.45041939 87.126207 77.52142048 90.27258849 79.59179688 93.41943359 C81.12733355 95.75642931 82.65752672 98.09685985 84.1875 100.4375 C84.66888428 101.16485352 85.15026855 101.89220703 85.64624023 102.64160156 C89 107.77441889 89 107.77441889 89 110 C67.19906642 112.99290273 67.19906642 112.99290273 60.76806641 108.40917969 C56.34036302 103.32916444 53.74436038 97.09250237 51 91 C49.40179434 87.7201331 47.67718343 84.54622553 45.875 81.375 C45.54636963 80.64740479 45.21773926 79.91980957 44.87915039 79.17016602 C43.63846976 76.68687605 43.63846976 76.68687605 40 74 C34.06 73.67 28.12 73.34 22 73 C22 85.21 22 97.42 22 110 C14.74 110 7.48 110 0 110 C0 73.7 0 37.4 0 0 Z " fill="#034456" transform="translate(816,402)"/>
<path d="M0 0 C45.21 0 90.42 0 137 0 C137 14.85 137 29.7 137 45 C91.79 45 46.58 45 0 45 C0 30.15 0 15.3 0 0 Z " fill="#004253" transform="translate(313,566)"/>
<path d="M0 0 C44.88 0 89.76 0 136 0 C136 14.85 136 29.7 136 45 C91.12 45 46.24 45 0 45 C0 30.15 0 15.3 0 0 Z " fill="#004152" transform="translate(395,432)"/>
<path d="M0 0 C6.93 0 13.86 0 21 0 C21 14.52 21 29.04 21 44 C37.17 44 53.34 44 70 44 C70 29.48 70 14.96 70 0 C76.93 0 83.86 0 91 0 C91 36.3 91 72.6 91 110 C84.4 110 77.8 110 71 110 C71 94.82 71 79.64 71 64 C54.5 64 38 64 21 64 C21 79.18 21 94.36 21 110 C14.07 110 7.14 110 0 110 C0 73.7 0 37.4 0 0 Z " fill="#004254" transform="translate(1130,402)"/>
<path d="M0 0 C24.75 0 49.5 0 75 0 C75 6.6 75 13.2 75 20 C57.18 20 39.36 20 21 20 C21 27.92 21 35.84 21 44 C36.84 44 52.68 44 69 44 C69 50.6 69 57.2 69 64 C53.16 64 37.32 64 21 64 C21 72.58 21 81.16 21 90 C39.15 90 57.3 90 76 90 C76 96.6 76 103.2 76 110 C50.92 110 25.84 110 0 110 C0 73.7 0 37.4 0 0 Z " fill="#014253" transform="translate(929,402)"/>
<path d="M0 0 C7.26 0 14.52 0 22 0 C22.01401855 3.39055664 22.01401855 3.39055664 22.02832031 6.84960938 C22.06216429 14.33757419 22.11775432 21.82526557 22.18390274 29.31301117 C22.22332667 33.8506154 22.25553997 38.38802706 22.27099609 42.92578125 C22.28619634 47.30915936 22.32070112 51.69200784 22.36830902 56.07514954 C22.38308822 57.74314253 22.39103902 59.41121116 22.39188385 61.07926941 C22.23956884 74.83564833 22.23956884 74.83564833 29.25 86.3125 C36.8801168 90.99461713 44.10394913 92.40268952 52.90625 90.30859375 C58.99284712 88.35335623 62.65441359 86.50402925 66 81 C67.69821779 76.02641931 68.26508198 71.65450731 68.31884766 66.41235352 C68.32889328 65.68956711 68.3389389 64.9667807 68.34928894 64.22209167 C68.3799237 61.85770386 68.39710053 59.49342823 68.4140625 57.12890625 C68.43279006 55.47980294 68.45236465 53.83070905 68.4727478 52.18162537 C68.52390736 47.85972671 68.56361925 43.53779704 68.60089111 39.21575928 C68.64103262 34.79805939 68.6920785 30.38048671 68.7421875 25.96289062 C68.83875513 17.30867456 68.92221186 8.65440526 69 0 C75.93 0 82.86 0 90 0 C90.09067207 10.2407129 90.16392909 20.48115551 90.20724869 30.72218037 C90.22804873 35.4784325 90.25622639 40.23439374 90.30175781 44.99047852 C90.3454879 49.58761101 90.36919402 54.1844652 90.37950897 58.78178978 C90.38685191 60.52833621 90.40118995 62.27486887 90.42292023 64.02129555 C90.57701093 76.92850871 89.70665904 87.60456038 81.046875 97.9296875 C75.0423627 104.00295376 68.29239215 107.99997963 60 110 C59.29617188 110.18175781 58.59234375 110.36351562 57.8671875 110.55078125 C42.85078512 112.90348735 27.60841119 111.763628 15.03125 102.6953125 C6.51344713 95.58622318 1.49740024 87.03156574 0 76 C-0.26876994 70.16380507 -0.23338335 64.33710878 -0.1953125 58.49609375 C-0.19157654 56.80501982 -0.18873232 55.1139437 -0.18673706 53.42286682 C-0.17914649 48.99895113 -0.15953795 44.57516938 -0.1373291 40.15130615 C-0.11677144 35.62627982 -0.10771424 31.10123158 -0.09765625 26.57617188 C-0.07628719 17.71737998 -0.04114301 8.85872215 0 0 Z " fill="#014456" transform="translate(697,402)"/>
<path d="M0 0 C0.92490234 -0.01160156 1.84980469 -0.02320313 2.80273438 -0.03515625 C16.34251053 0.02177343 28.22615582 5.18015653 38.0625 14.375 C37.58292767 18.66053996 34.8437778 21.14431405 32 24.125 C31.52755859 24.63160156 31.05511719 25.13820313 30.56835938 25.66015625 C29.40619289 26.90449613 28.23519839 28.14058064 27.0625 29.375 C26.33546875 28.90449219 25.6084375 28.43398438 24.859375 27.94921875 C15.6916401 22.27227521 6.03775944 18.09455307 -4.9375 19.375 C-9.38936488 20.99097942 -12.27710717 22.38441075 -14.9375 26.375 C-15.36185518 30.76000355 -15.54044116 33.22154734 -13.5 37.125 C-7.40407389 42.47752048 0.74811986 44.25182835 8.4375 46.25 C16.2759462 48.38788272 23.25331482 50.81798245 30.0625 55.375 C30.990625 55.9525 31.91875 56.53 32.875 57.125 C40.07387723 64.52955944 42.45004481 72.14590741 42.33984375 82.2109375 C41.6372102 90.22689771 37.72447997 97.70081749 32.0625 103.375 C19.95014836 112.91347692 4.87981077 113.7130387 -9.9375 112.375 C-20.95027282 110.38392667 -30.83799697 105.06952788 -38.9375 97.375 C-39.64396162 96.06231794 -40.31934557 94.73150556 -40.9375 93.375 C-40.22722656 92.60414063 -39.51695313 91.83328125 -38.78515625 91.0390625 C-37.8566529 90.02614976 -36.92827394 89.01312299 -36 88 C-35.53142578 87.49210937 -35.06285156 86.98421875 -34.58007812 86.4609375 C-31.96023232 83.63234146 -31.96023232 83.63234146 -29.9375 80.375 C-26.44546107 81.65541427 -23.59186405 83.1635107 -20.5625 85.3125 C-12.13589003 91.05155331 -4.12728525 93.20651067 6.0625 92.375 C10.64093613 91.4692969 14.05693728 90.2334072 17.625 87.1875 C19.47627184 83.56544639 20.08836749 80.35777968 19.0625 76.375 C13.07223329 67.32152872 0.29314336 65.38276165 -9.64257812 62.69360352 C-20.02766069 59.76893861 -29.30297016 54.95616111 -34.8671875 45.4375 C-38.42565286 38.58031128 -39.44125509 30.3280902 -37.1796875 22.87890625 C-36.21437971 20.6252546 -35.13795961 18.51148231 -33.9375 16.375 C-33.40125 15.34375 -32.865 14.3125 -32.3125 13.25 C-23.82977808 2.98144189 -12.82721245 -0.16022889 0 0 Z " fill="#014253" transform="translate(1063.9375,400.625)"/>
<path d="M0 0 C0.92683594 0.515625 1.85367188 1.03125 2.80859375 1.5625 C3.84886719 2.14 4.88914062 2.7175 5.9609375 3.3125 C14.08596888 8.16451359 14.08596888 8.16451359 15.80859375 12.5625 C14.3761979 14.35824993 12.93749335 16.14896907 11.49609375 17.9375 C10.29533203 19.43410156 10.29533203 19.43410156 9.0703125 20.9609375 C6.80859375 23.5625 6.80859375 23.5625 3.80859375 25.5625 C3.23753906 25.17578125 2.66648437 24.7890625 2.078125 24.390625 C-6.71203972 18.74479583 -17.48033204 13.7665017 -28.19140625 15.5625 C-32.28352384 17.07809911 -35.24773892 18.56718382 -37.19140625 22.5625 C-37.68488053 27.00376849 -37.81745175 29.36484774 -35.75390625 33.3125 C-29.65725098 38.66566072 -21.50600541 40.43753031 -13.81640625 42.4375 C-2.07319345 45.66303749 9.47149673 49.71630248 16.0859375 60.6796875 C20.17913565 68.63301913 21.00040549 75.90288522 18.68359375 84.625 C15.17670593 94.88827721 9.49082309 100.72793623 -0.19140625 105.5625 C-11.83502571 110.84821417 -28.35266591 110.49778964 -40.37890625 106.5 C-49.91972134 102.79432237 -56.94424372 97.61805169 -63.19140625 89.5625 C-62.48113281 88.79164063 -61.77085937 88.02078125 -61.0390625 87.2265625 C-60.11055915 86.21364976 -59.18218019 85.20062299 -58.25390625 84.1875 C-57.78533203 83.67960937 -57.31675781 83.17171875 -56.83398438 82.6484375 C-54.21413857 79.81984146 -54.21413857 79.81984146 -52.19140625 76.5625 C-48.75840893 77.81629033 -46.05430603 79.26176914 -43.12890625 81.4375 C-34.71550623 87.13014877 -25.33362049 89.86916564 -15.19140625 88.5625 C-10.81079148 87.48910433 -7.1632995 86.06138595 -4.19140625 82.5625 C-2.98949724 78.95677296 -2.8647031 76.3522565 -3.19140625 72.5625 C-8.88143095 63.98189066 -19.9458256 62.30527887 -29.31640625 59.625 C-42.0599658 55.9529468 -51.08644416 50.96107757 -58.17578125 39.4296875 C-61.32970258 33.63132443 -60.7868939 26.95543633 -60.19140625 20.5625 C-57.72635528 12.36040214 -52.55935466 6.06656381 -45.1796875 1.8359375 C-31.49131808 -5.1320865 -14.27260404 -6.67192115 0 0 Z " fill="#014153" transform="translate(654.19140625,404.4375)"/>
<path d="M0 0 C7.6415625 -0.0928125 7.6415625 -0.0928125 15.4375 -0.1875 C17.02618896 -0.21481201 18.61487793 -0.24212402 20.25170898 -0.27026367 C36.67149758 -0.36661299 36.67149758 -0.36661299 43.8125 5.1875 C48.13115368 10.74005473 50.70760369 15.5959298 50.3125 22.76953125 C49.22241479 30.55001447 46.1643606 34.33588138 40 39 C39.34 39.66 38.68 40.32 38 41 C38.32274902 41.4940332 38.64549805 41.98806641 38.97802734 42.49707031 C40.44588313 44.74662132 41.91046882 46.9982833 43.375 49.25 C43.88289062 50.02730469 44.39078125 50.80460938 44.9140625 51.60546875 C45.40390625 52.35957031 45.89375 53.11367188 46.3984375 53.890625 C46.84880371 54.58188477 47.29916992 55.27314453 47.76318359 55.98535156 C48.96567805 57.94409302 50.00522517 59.92924424 51 62 C45.91907557 63.12446688 40.91589272 64.03270223 36 62 C30.78217807 57.20721399 26.9422572 50.40358946 24 44 C24 43.34 24 42.68 24 42 C20.37 42 16.74 42 13 42 C13 48.6 13 55.2 13 62 C8.71 62 4.42 62 0 62 C0 41.54 0 21.08 0 0 Z " fill="#014253" transform="translate(862,556)"/>
<path d="M0 0 C37.82978723 0 37.82978723 0 45.0625 6.9375 C49.24190446 13.54365544 49.810254 19.28758231 49 27 C47.41017623 32.31946439 44.79027012 36.05214146 40 39 C39.01 39 38.02 39 37 39 C37.47626831 39.77863403 37.47626831 39.77863403 37.9621582 40.57299805 C39.41248865 42.94436636 40.86249702 45.31593144 42.3125 47.6875 C43.06176758 48.91243164 43.06176758 48.91243164 43.82617188 50.16210938 C46.23290896 54.09895746 48.63546387 58.03758622 51 62 C45.66849332 63.08369396 40.18286209 64.10637142 35 62 C30.36630327 57.54643357 27.58540032 51.51521202 24.86938477 45.76586914 C24.12785477 44.0205004 24.12785477 44.0205004 23 43 C21.31816052 42.76712992 19.6287584 42.58735834 17.9375 42.4375 C16.308125 42.293125 14.67875 42.14875 13 42 C13 48.6 13 55.2 13 62 C8.71 62 4.42 62 0 62 C0 41.54 0 21.08 0 0 Z " fill="#014253" transform="translate(998,556)"/>
<path d="M0 0 C11 0 11 0 13.8046875 2.02734375 C14.48789062 2.98769531 15.17109375 3.94804688 15.875 4.9375 C16.2659082 5.46311523 16.65681641 5.98873047 17.05957031 6.53027344 C17.92251983 7.69401868 18.77087925 8.86868612 19.60644531 10.05224609 C21.12497562 12.17467686 22.70564885 14.23837959 24.3046875 16.30078125 C29.61108842 23.14521516 34.80360169 30.07146892 40 37 C40.33 24.79 40.66 12.58 41 0 C45.29 0 49.58 0 54 0 C54 20.46 54 40.92 54 62 C42 62 42 62 38.2578125 58.6953125 C37.17455125 57.19934845 36.13168699 55.67352985 35.125 54.125 C33.95952077 52.48353125 32.7928148 50.84293295 31.625 49.203125 C31.0371875 48.35041016 30.449375 47.49769531 29.84375 46.61914062 C26.76522299 42.24593647 23.43367838 38.07483657 20.125 33.875 C18.10375 31.27625 16.0825 28.6775 14 26 C13.67 37.88 13.34 49.76 13 62 C8.71 62 4.42 62 0 62 C0 41.54 0 21.08 0 0 Z " fill="#034152" transform="translate(658,556)"/>
<path d="M0 0 C30 0 30 0 39 4 C43.99691813 8.99691813 46.97272775 13.0094545 47.375 20.1875 C47.20268238 25.62910919 45.94487084 30.3913162 43 35 C37.9027606 39.62025003 32.78818006 42.14991045 25.890625 42.09765625 C24.8701709 42.09390991 24.8701709 42.09390991 23.82910156 42.09008789 C22.55244629 42.07643188 22.55244629 42.07643188 21.25 42.0625 C18.5275 42.041875 15.805 42.02125 13 42 C13 48.6 13 55.2 13 62 C8.71 62 4.42 62 0 62 C0 41.54 0 21.08 0 0 Z " fill="#054455" transform="translate(932,556)"/>
<path d="M0 0 C14.19 0 28.38 0 43 0 C43 3.63 43 7.26 43 11 C33.1 11 23.2 11 13 11 C13 15.62 13 20.24 13 25 C21.91 25 30.82 25 40 25 C40 28.96 40 32.92 40 37 C31.09 37 22.18 37 13 37 C13 41.62 13 46.24 13 51 C22.9 51 32.8 51 43 51 C43 54.63 43 58.26 43 62 C28.81 62 14.62 62 0 62 C0 41.54 0 21.08 0 0 Z " fill="#004657" transform="translate(798,556)"/>
<path d="M0 0 C13.86 0 27.72 0 42 0 C42 3.63 42 7.26 42 11 C32.43 11 22.86 11 13 11 C13 15.62 13 20.24 13 25 C21.91 25 30.82 25 40 25 C40 28.96 40 32.92 40 37 C31.09 37 22.18 37 13 37 C13 41.62 13 46.24 13 51 C22.9 51 32.8 51 43 51 C43 54.63 43 58.26 43 62 C28.81 62 14.62 62 0 62 C0 41.54 0 21.08 0 0 Z " fill="#014758" transform="translate(1168,556)"/>
<path d="M0 0 C13.86 0 27.72 0 42 0 C42 3.63 42 7.26 42 11 C32.1 11 22.2 11 12 11 C12 15.62 12 20.24 12 25 C20.91 25 29.82 25 39 25 C39 28.96 39 32.92 39 37 C30.09 37 21.18 37 12 37 C12 41.62 12 46.24 12 51 C22.23 51 32.46 51 43 51 C43 54.63 43 58.26 43 62 C28.81 62 14.62 62 0 62 C0 41.54 0 21.08 0 0 Z " fill="#013E4F" transform="translate(595,556)"/>
<path d="M0 0 C2.19294441 1.5513214 4.04281575 3.14582545 6 5 C5.07456291 6.34173403 4.13422595 7.67320159 3.1875 9 C2.66542969 9.7425 2.14335938 10.485 1.60546875 11.25 C1.07566406 11.8275 0.54585937 12.405 0 13 C-3.54006687 13 -5.32335061 11.72075528 -8.30859375 9.95703125 C-12.38116668 7.6526886 -16.37960248 7.66997161 -21 8 C-23.53958234 8.88329643 -23.53958234 8.88329643 -25 11 C-25.33380814 14.62563814 -25.33380814 14.62563814 -25 18 C-20.3038144 19.96500664 -15.48000767 21.48540889 -10.61523438 22.96875 C-3.25444372 25.33018132 1.47172664 28.91917577 6 35 C7.60722415 39.82167246 7.38629143 43.70478754 5.9375 48.5625 C3.08219229 53.62836852 -0.35699966 56.89152339 -5.73828125 59.1484375 C-13.3412936 61.13341557 -24.00142731 61.46586155 -31.25 58.1328125 C-34.83431179 55.81261067 -37.94372723 52.96686054 -41 50 C-39.38617243 46.59787701 -37.41396234 43.89675481 -35 41 C-32.87438655 42.04091826 -30.79514987 43.11675396 -28.73828125 44.2890625 C-23.13848669 47.37300733 -18.43049923 49.1885164 -12 48 C-9.79812867 47.24060299 -9.79812867 47.24060299 -8 46 C-6.91776634 43.08995097 -6.91776634 43.08995097 -7 40 C-10.37787685 35.76474157 -15.81335361 34.74333588 -20.7578125 33.0625 C-33.84908299 28.49660729 -33.84908299 28.49660729 -37.375 22.25 C-39.48360538 17.47462899 -40.17415042 13.17944103 -38.3046875 8.1171875 C-35.5886068 2.84479555 -31.76721809 -0.9015917 -26.1953125 -3.11328125 C-17.17769657 -5.61572479 -8.1291611 -4.58455392 0 0 Z " fill="#034051" transform="translate(1141,559)"/>
<path d="M0 0 C4.805625 -0.061875 9.61125 -0.12375 14.5625 -0.1875 C16.81622437 -0.22846802 16.81622437 -0.22846802 19.11547852 -0.27026367 C20.91650024 -0.28150269 20.91650024 -0.28150269 22.75390625 -0.29296875 C23.97408447 -0.3086792 25.1942627 -0.32438965 26.45141602 -0.34057617 C31.12637363 0.10810397 35.14171559 1.36254311 38.7421875 4.53515625 C43.39210765 10.80453135 43.70101348 15.2380536 43 23 C40.98303204 27.70625857 38.29302848 29.95498701 33.69726562 32.1796875 C27.70150225 34.00316369 21.19728449 33.39601609 15 33.25 C7.575 33.12625 7.575 33.12625 0 33 C0 22.11 0 11.22 0 0 Z " fill="#FCFDFD" transform="translate(838,422)"/>
<path d="M0 0 C16.83 0 33.66 0 51 0 C51 3.96 51 7.92 51 12 C44.73 12 38.46 12 32 12 C32 28.5 32 45 32 62 C27.71 62 23.42 62 19 62 C19 45.5 19 29 19 12 C12.73 12 6.46 12 0 12 C0 8.04 0 4.08 0 0 Z " fill="#034556" transform="translate(730,556)"/>
<path d="M0 0 C4.29 0 8.58 0 13 0 C13 20.46 13 40.92 13 62 C8.71 62 4.42 62 0 62 C0 41.54 0 21.08 0 0 Z " fill="#004556" transform="translate(1068,556)"/>
<path d="M0 0 C13.86 0 27.72 0 42 0 C42 3.63 42 7.26 42 11 C32.43 11 22.86 11 13 11 C13 15.62 13 20.24 13 25 C21.58 25 30.16 25 39 25 C39 28.63 39 32.26 39 36 C30.42 36 21.84 36 13 36 C13 35.67 13 35.34 13 35 C21.25 35 29.5 35 38 35 C38 32.36 38 29.72 38 27 C36.82642944 27.00785522 36.82642944 27.00785522 35.62915039 27.01586914 C32.10694167 27.03657106 28.5847457 27.04963838 25.0625 27.0625 C23.21495117 27.07506836 23.21495117 27.07506836 21.33007812 27.08789062 C20.16025391 27.09111328 18.99042969 27.09433594 17.78515625 27.09765625 C16.15912476 27.10551147 16.15912476 27.10551147 14.50024414 27.11352539 C12 27 12 27 11 26 C10.90067608 23.68925832 10.87030382 21.37537058 10.875 19.0625 C10.87113281 17.16177734 10.87113281 17.16177734 10.8671875 15.22265625 C11 12 11 12 12 10 C21.57 10 31.14 10 41 10 C41 7.36 41 4.72 41 2 C28.13 2 15.26 2 2 2 C2 21.14 2 40.28 2 60 C21.8 60.495 21.8 60.495 42 61 C42 58.36 42 55.72 42 53 C40.69796631 53.01571045 40.69796631 53.01571045 39.36962891 53.03173828 C36.15300472 53.06579716 32.93647233 53.09088767 29.71972656 53.10986328 C28.32679219 53.11992877 26.93387898 53.13358234 25.54101562 53.15087891 C23.5404564 53.1751022 21.53974385 53.18540814 19.5390625 53.1953125 C18.33459473 53.20578613 17.13012695 53.21625977 15.88916016 53.22705078 C13 53 13 53 11 51 C10.8046875 47.7421875 10.8046875 47.7421875 10.875 43.875 C10.89304687 42.59367188 10.91109375 41.31234375 10.9296875 39.9921875 C10.95289063 39.00476563 10.97609375 38.01734375 11 37 C11.66 37.33 12.32 37.66 13 38 C13 42.29 13 46.58 13 51 C22.9 51 32.8 51 43 51 C43 54.63 43 58.26 43 62 C28.81 62 14.62 62 0 62 C0 41.54 0 21.08 0 0 Z " fill="#012B3D" transform="translate(1168,556)"/>
<path d="M0 0 C14.19 0 28.38 0 43 0 C43 3.63 43 7.26 43 11 C33.1 11 23.2 11 13 11 C13 10.67 13 10.34 13 10 C22.57 10 32.14 10 42 10 C42 7.36 42 4.72 42 2 C28.8 2 15.6 2 2 2 C2 21.47 2 40.94 2 61 C15.2 61 28.4 61 42 61 C42 58.36 42 55.72 42 53 C40.69796631 53.01571045 40.69796631 53.01571045 39.36962891 53.03173828 C36.15300472 53.06579716 32.93647233 53.09088767 29.71972656 53.10986328 C28.32679219 53.11992877 26.93387898 53.13358234 25.54101562 53.15087891 C23.5404564 53.1751022 21.53974385 53.18540814 19.5390625 53.1953125 C18.33459473 53.20578613 17.13012695 53.21625977 15.88916016 53.22705078 C13 53 13 53 11 51 C10.734375 47.8125 10.734375 47.8125 10.75 44 C10.74484375 42.741875 10.7396875 41.48375 10.734375 40.1875 C11 37 11 37 13 35 C15.61376953 34.77294922 15.61376953 34.77294922 18.8828125 34.8046875 C20.63271484 34.81435547 20.63271484 34.81435547 22.41796875 34.82421875 C24.25294922 34.84935547 24.25294922 34.84935547 26.125 34.875 C27.35605469 34.88402344 28.58710937 34.89304687 29.85546875 34.90234375 C32.90383815 34.92597452 35.95182382 34.95891946 39 35 C39 32.36 39 29.72 39 27 C30.42 27 21.84 27 13 27 C13 26.67 13 26.34 13 26 C21.91 25.67 30.82 25.34 40 25 C40 28.96 40 32.92 40 37 C31.09 37 22.18 37 13 37 C13 41.62 13 46.24 13 51 C22.9 51 32.8 51 43 51 C43 54.63 43 58.26 43 62 C28.81 62 14.62 62 0 62 C0 41.54 0 21.08 0 0 Z " fill="#053041" transform="translate(798,556)"/>
<path d="M0 0 C2.51625 -0.061875 5.0325 -0.12375 7.625 -0.1875 C8.79603271 -0.22846802 8.79603271 -0.22846802 9.99072266 -0.27026367 C14.71841279 -0.32607418 17.91835974 0.37083533 22 3 C24.11212504 6.16818756 24.33156464 8.13219252 24.55859375 11.8671875 C23.61620373 15.46540395 21.97568466 16.81908681 19 19 C15.69799292 19.59722235 12.52886742 19.47321104 9.1875 19.3125 C6.155625 19.209375 3.12375 19.10625 0 19 C0 12.73 0 6.46 0 0 Z " fill="#F7FAFA" transform="translate(875,567)"/>
<path d="M0 0 C2.51625 -0.0825 5.0325 -0.165 7.625 -0.25 C8.79603271 -0.30462402 8.79603271 -0.30462402 9.99072266 -0.36035156 C15.10756939 -0.44089091 17.95525116 0.62330277 22 4 C24.14252648 7.21378973 24.27192458 7.85173181 23.9375 11.5 C23.88464844 12.2734375 23.83179688 13.046875 23.77734375 13.84375 C23 16 23 16 21.0234375 17.76953125 C16.83901379 19.47249439 13.1509169 19.32382745 8.6875 19.1875 C5.820625 19.125625 2.95375 19.06375 0 19 C0 12.73 0 6.46 0 0 Z " fill="#F6F9FA" transform="translate(1011,567)"/>
<path d="M0 0 C3.8053125 -0.12375 3.8053125 -0.12375 7.6875 -0.25 C8.87218872 -0.30462402 8.87218872 -0.30462402 10.08081055 -0.36035156 C13.78399145 -0.4184113 15.68843356 -0.17780493 18.984375 1.703125 C21.32949093 4.37546641 21.65339483 5.49252906 21.5625 9 C21.56443359 10.2684375 21.56443359 10.2684375 21.56640625 11.5625 C20.78187662 14.93868268 19.87979304 16.0472943 17 18 C14.06051269 18.47503848 11.21745104 18.3769678 8.25 18.25 C5.5275 18.1675 2.805 18.085 0 18 C0 12.06 0 6.12 0 0 Z " fill="#FCFDFD" transform="translate(945,568)"/>
<path d="M0 0 C7.26 0 14.52 0 22 0 C22 25.74 22 51.48 22 78 C21.67 78 21.34 78 21 78 C20.02165057 73.91678506 19.87902674 70.10794807 19.88647461 65.91479492 C19.88632858 65.22156128 19.88618256 64.52832764 19.8860321 63.81408691 C19.88672549 61.53618171 19.89449085 59.25835957 19.90234375 56.98046875 C19.90420997 55.39577784 19.90563291 53.81108635 19.90663147 52.22639465 C19.91044057 48.0655049 19.92025708 43.90465032 19.93133545 39.74377441 C19.94158418 35.49390132 19.9461365 31.24402252 19.95117188 26.99414062 C19.96188084 18.66274251 19.97946458 10.33137969 20 2 C14.06 2 8.12 2 2 2 C2 27.41 2 52.82 2 79 C-0.39945152 75.40082272 -0.26971759 72.83570475 -0.22705078 68.68286133 C-0.22734283 67.94115189 -0.22763489 67.19944244 -0.22793579 66.43525696 C-0.22654264 63.98406265 -0.21098227 61.53317245 -0.1953125 59.08203125 C-0.19158232 57.38238186 -0.18873537 55.68273031 -0.18673706 53.983078 C-0.17910102 49.50975609 -0.15945279 45.03656406 -0.1373291 40.56329346 C-0.11687004 35.99859372 -0.10773522 31.433873 -0.09765625 26.86914062 C-0.07620685 17.91269417 -0.04102495 8.95637821 0 0 Z " fill="#1E4B59" transform="translate(697,402)"/>
<path d="M0 0 C0.66 0 1.32 0 2 0 C2 34.98 2 69.96 2 106 C7.94 106 13.88 106 20 106 C20 91.81 20 77.62 20 63 C20.33 63 20.66 63 21 63 C21 77.85 21 92.7 21 108 C14.07 108 7.14 108 0 108 C0 72.36 0 36.72 0 0 Z " fill="#033042" transform="translate(1130,404)"/>
<path d="M0 0 C6.93 0 13.86 0 21 0 C21 25.41 21 50.82 21 77 C20.67 77 20.34 77 20 77 C20 52.25 20 27.5 20 2 C14.06 2 8.12 2 2 2 C2.01047363 4.09956055 2.02094727 6.19912109 2.03173828 8.36230469 C2.06487803 15.29929966 2.08696969 22.23629812 2.10362434 29.17335129 C2.11406149 33.379282 2.12821943 37.5851316 2.15087891 41.79101562 C2.17260975 45.84993538 2.18456915 49.90877711 2.18975449 53.96775055 C2.19344981 55.51630125 2.20066583 57.06484768 2.21146011 58.61336517 C2.22597835 60.78237638 2.22797782 62.95106521 2.22705078 65.12011719 C2.231492 66.35477722 2.23593323 67.58943726 2.24050903 68.86151123 C2 72 2 72 0 76 C0 50.92 0 25.84 0 0 Z " fill="#0B3342" transform="translate(766,402)"/>
<path d="M0 0 C4.29 0 8.58 0 13 0 C13 20.46 13 40.92 13 62 C8.71 62 4.42 62 0 62 C0 41.54 0 21.08 0 0 Z M2 2 C2 21.47 2 40.94 2 61 C5.3 61 8.6 61 12 61 C12 41.53 12 22.06 12 2 C8.7 2 5.4 2 2 2 Z " fill="#053144" transform="translate(1068,556)"/>
<path d="M0 0 C10.23 0 20.46 0 31 0 C31.66 0.66 32.32 1.32 33 2 C22.77 2 12.54 2 2 2 C2 21.47 2 40.94 2 61 C4.97 61 7.94 61 11 61 C11 54.73 11 48.46 11 42 C11.33 42 11.66 42 12 42 C12.33 48.6 12.66 55.2 13 62 C8.71 62 4.42 62 0 62 C0 41.54 0 21.08 0 0 Z " fill="#033041" transform="translate(998,556)"/>
<path d="M0 0 C7.858125 -0.061875 7.858125 -0.061875 15.875 -0.125 C17.52741699 -0.14320801 19.17983398 -0.16141602 20.88232422 -0.18017578 C22.1767041 -0.1851709 23.47108398 -0.19016602 24.8046875 -0.1953125 C25.48539307 -0.20554443 26.16609863 -0.21577637 26.86743164 -0.22631836 C28.57995007 -0.22695569 30.29187236 -0.12255506 32 0 C32.66 0.66 33.32 1.32 34 2 C23.44 2 12.88 2 2 2 C2 21.47 2 40.94 2 61 C5.63 61 9.26 61 13 61 C13 61.33 13 61.66 13 62 C8.71 62 4.42 62 0 62 C0 41.54 0 21.08 0 0 Z " fill="#08394A" transform="translate(862,556)"/>
<path d="M0 0 C16.83 0 33.66 0 51 0 C51 3.63 51 7.26 51 11 C44.73 11 38.46 11 32 11 C32 10.67 32 10.34 32 10 C37.61 10 43.22 10 49 10 C49 7.36 49 4.72 49 2 C32.83 2 16.66 2 0 2 C0 1.34 0 0.68 0 0 Z " fill="#083748" transform="translate(730,556)"/>
<path d="M0 0 C0.66 0 1.32 0 2 0 C2 7.92 2 15.84 2 24 C17.51 24 33.02 24 49 24 C49 24.33 49 24.66 49 25 C42.1825293 25.16782542 35.36490729 25.32778898 28.54711914 25.48217773 C26.22578716 25.53568563 23.90449658 25.59102145 21.58325195 25.64819336 C18.25481093 25.72985982 14.92627837 25.80504119 11.59765625 25.87890625 C10.55287613 25.90594131 9.50809601 25.93297638 8.43165588 25.96083069 C7.47073532 25.98092697 6.50981476 26.00102325 5.51977539 26.02172852 C4.24403404 26.05170677 4.24403404 26.05170677 2.94252014 26.08229065 C1 26 1 26 0 25 C-0.08737645 23.14630389 -0.10698153 21.28932459 -0.09765625 19.43359375 C-0.09443359 18.30888672 -0.09121094 17.18417969 -0.08789062 16.02539062 C-0.07951172 14.84138672 -0.07113281 13.65738281 -0.0625 12.4375 C-0.05798828 11.24962891 -0.05347656 10.06175781 -0.04882812 8.83789062 C-0.03699675 5.89187774 -0.02051287 2.94596319 0 0 Z " fill="#154857" transform="translate(948,422)"/>
<path d="M0 0 C0.66 0.99 1.32 1.98 2 3 C1.484375 3.5775 0.96875 4.155 0.4375 4.75 C-1.22588305 6.83379519 -1.22588305 6.83379519 -0.78125 8.953125 C1.61641014 15.23499458 9.28811093 18.39457691 15 21 C12 22 12 22 9.73046875 20.9609375 C-2.984375 13.03125 -2.984375 13.03125 -6 7 C-4.02 4.69 -2.04 2.38 0 0 Z " fill="#0C3545" transform="translate(1029,487)"/>
<path d="M0 0 C0.33 0.99 0.66 1.98 1 3 C-1.31 4.65 -3.62 6.3 -6 8 C-6.66 7.67 -7.32 7.34 -8 7 C-5.36 4.69 -2.72 2.38 0 0 Z " fill="#0A3344" transform="translate(476,613)"/>
<path d="M0 0 C0 0.99 0 1.98 0 3 C-2.49529367 5.31705841 -4.65980694 6.40353695 -8 7 C-5.42215154 4.35247996 -3.08351902 2.05567935 0 0 Z " fill="#042C3E" transform="translate(351,368)"/>
<path d="M0 0 C0.66 0.33 1.32 0.66 2 1 C0.35 2.98 -1.3 4.96 -3 7 C-3.99 6.67 -4.98 6.34 -6 6 C-4.02 4.02 -2.04 2.04 0 0 Z " fill="#01293A" transform="translate(340,376)"/>
</svg>
